<svg xmlns="http://www.w3.org/2000/svg" width="860" height="370" viewBox="0 0 860 370" role="img" aria-label="Total billed output by answer size. short answers: caveman 84%, ponytail 106%, Upstream 84%; long answers: caveman 79%, ponytail 59%, Upstream 45%.">
<rect width="860" height="370" rx="10" fill="#0d1117"/>
<text x="430" y="34" font-size="17" font-weight="700" fill="#c9d1d9" text-anchor="middle">Does it pay off more on bigger answers?</text>
<text x="430" y="54" font-size="11.5" fill="#8b949e" text-anchor="middle">20 tasks split at the median baseline; bill weighted by task size</text>
<text x="430" y="72" font-size="11" fill="#8b949e" text-anchor="middle">Upstream 84% on short answers vs 45% on long ones — the headline average hides both</text>
<line x1="598.7692307692307" y1="88" x2="598.7692307692307" y2="314" stroke="#8b949e" stroke-width="1.5" stroke-dasharray="4 3"/><text x="598.7692307692307" y="82" font-size="11" fill="#8b949e" text-anchor="middle">100% = no tool</text><text x="154" y="108" font-size="13" font-weight="700" fill="#c9d1d9" text-anchor="end">short answers</text><text x="154" y="123" font-size="10" fill="#8b949e" text-anchor="end">80–418 tok · n=10</text><rect x="168" y="104" width="361.8461538461538" height="20" rx="3" fill="#d9822b"/><text x="537.8461538461538" y="118" font-size="12" fill="#c9d1d9">84%  caveman</text><rect x="168" y="130" width="456.6153846153846" height="20" rx="3" fill="#cf3b3b"/><text x="632.6153846153845" y="144" font-size="12" fill="#c9d1d9">106%  ponytail</text><rect x="168" y="156" width="361.8461538461538" height="20" rx="3" fill="#2da44e"/><text x="537.8461538461538" y="170" font-size="12" fill="#c9d1d9" font-weight="700">84%  Upstream</text><text x="154" y="228" font-size="13" font-weight="700" fill="#c9d1d9" text-anchor="end">long answers</text><text x="154" y="243" font-size="10" fill="#8b949e" text-anchor="end">522–4910 tok · n=10</text><rect x="168" y="224" width="340.30769230769226" height="20" rx="3" fill="#d9822b"/><text x="516.3076923076923" y="238" font-size="12" fill="#c9d1d9">79%  caveman</text><rect x="168" y="250" width="254.15384615384613" height="20" rx="3" fill="#cf3b3b"/><text x="430.15384615384613" y="264" font-size="12" fill="#c9d1d9">59%  ponytail</text><rect x="168" y="276" width="193.84615384615384" height="20" rx="3" fill="#2da44e"/><text x="369.8461538461538" y="290" font-size="12" fill="#c9d1d9" font-weight="700">45%  Upstream</text></svg>
